<svg
   xmlns="http://www.w3.org/2000/svg"
   viewBox="0 0 16 16">
   <path d="m 1.4211735,3.6493058 1.0876736,0.7251157 v 2.9004627 l 2.1753472,2.175347 V 8.0000002 L 3.5965207,6.9123267 V 4.7369794 L 4.6841943,5.824653 V 4.7369794 L 3.5965207,3.6493058 Z" />
   <path d="M 2.5088471,7.6374427 5.0467522,10.175347 V 8.7251162 L 5.7718679,8.0000002 5.0467522,7.2748842 V 4.7369794 L 3.9590786,3.6493058 6.1344258,4.7369794 V 6.9123267 L 6.4969837,7.2748842 V 3.6493058 l 1.0876734,1.0876736 v 2.9004633 l -0.7251156,0.725115 0.7251156,0.725116 V 11.263021 L 8.6723306,12.350694 6.4969837,11.263021 V 9.0876737 L 6.1344258,8.7251162 V 12.350694 L 2.5088471,8.7251162 Z" />
   <path d="M 7.9472156,11.263021 V 8.7251162 l 0.725115,-0.725116 -0.725115,-0.725116 V 4.7369794 L 6.8595415,3.6493058 9.0348891,4.7369794 V 6.9123267 L 9.3974469,7.2748842 V 3.6493058 l 1.0876741,1.0876736 v 2.9004633 l -0.7251165,0.725115 0.7251165,0.725116 v 2.1753473 l 1.087673,1.087673 -2.1753471,-1.087673 V 9.0876737 L 9.0348891,8.7251162 v 3.6255778 z" />
   <path d="M 10.847679,11.263021 V 8.7251162 l 0.725115,-0.725116 -0.725115,-0.725116 V 4.7369794 L 9.7600045,3.6493058 11.935353,4.7369794 V 6.9123267 L 12.29791,7.2748842 V 3.6493058 l 1.087674,1.0876736 v 2.9004633 l -0.725116,0.725115 0.725116,0.725116 V 12.350694 L 12.29791,11.263021 V 9.0876737 L 11.935353,8.7251162 v 3.6255778 z" />
</svg>
